<svg width="458" height="458" viewBox="0 0 458 458" fill="none" xmlns="http://www.w3.org/2000/svg">
<g clip-path="url(#clip0)">
<path fill-rule="evenodd" clip-rule="evenodd" d="M457 229.5C457 355.145 355.145 457 229.5 457C103.855 457 2 355.145 2 229.5C2 103.855 103.855 2 229.5 2C355.145 2 457 103.855 457 229.5ZM229.5 423C336.367 423 423 336.367 423 229.5C423 122.633 336.367 36 229.5 36C122.633 36 36 122.633 36 229.5C36 336.367 122.633 423 229.5 423Z" fill="#B17163"/>
<g filter="url(#filter0_d)">
<path fill-rule="evenodd" clip-rule="evenodd" d="M423 229.5C423 336.367 336.367 423 229.5 423C122.633 423 36 336.367 36 229.5C36 122.633 122.633 36 229.5 36C336.367 36 423 122.633 423 229.5Z" fill="#FFA794"/>
</g>
<g filter="url(#filter1_i)">
<path d="M243.121 78C266.086 78 284.383 81.0273 298.01 87.0819C311.638 93.1365 321.48 102.723 327.536 115.841C333.845 128.959 337 146.619 337 168.819C337 192.28 333.972 210.57 327.915 223.689C321.858 236.807 312.016 246.141 298.389 251.691C285.014 256.989 266.591 259.638 243.121 259.638H209.632C203.937 259.638 201.09 259.638 198.923 260.764C197.096 261.712 195.607 263.202 194.658 265.028C193.532 267.195 193.532 270.043 193.532 275.738V364.63C193.532 370.324 193.532 373.172 192.407 375.339C191.458 377.166 189.969 378.655 188.142 379.604C185.975 380.73 183.127 380.73 177.432 380.73H166.1C160.405 380.73 157.558 380.73 155.39 379.604C153.564 378.655 152.075 377.166 151.126 375.339C150 373.172 150 370.324 150 364.63V94.1C150 88.4051 150 85.5576 151.126 83.3902C152.075 81.5638 153.564 80.0746 155.39 79.1259C157.558 78 160.405 78 166.1 78H191.261L192.5 78L193.532 78H243.121ZM243.121 219.526C257.506 219.526 268.105 218.391 274.919 216.12C281.733 213.598 286.528 208.931 289.304 202.119C292.08 195.055 293.468 183.955 293.468 168.819C293.468 155.196 291.953 144.853 288.925 137.789C286.149 130.473 281.228 125.428 274.162 122.653C267.096 119.625 256.749 118.112 243.121 118.112H209.632C203.937 118.112 201.09 118.112 198.923 119.238C197.096 120.186 195.607 121.675 194.658 123.502C193.532 125.669 193.532 128.517 193.532 134.212V203.426C193.532 209.121 193.532 211.968 194.658 214.136C195.607 215.962 197.096 217.451 198.923 218.4C201.09 219.526 203.937 219.526 209.632 219.526H243.121Z" fill="#B17163"/>
</g>
</g>
<defs>
<filter id="filter0_d" x="-3" y="-3" width="465" height="465" filterUnits="userSpaceOnUse" color-interpolation-filters="sRGB">
<feFlood flood-opacity="0" result="BackgroundImageFix"/>
<feColorMatrix in="SourceAlpha" type="matrix" values="0 0 0 0 0 0 0 0 0 0 0 0 0 0 0 0 0 0 127 0" result="hardAlpha"/>
<feOffset/>
<feGaussianBlur stdDeviation="19.5"/>
<feComposite in2="hardAlpha" operator="out"/>
<feColorMatrix type="matrix" values="0 0 0 0 0 0 0 0 0 0 0 0 0 0 0 0 0 0 0.49 0"/>
<feBlend mode="normal" in2="BackgroundImageFix" result="effect1_dropShadow"/>
<feBlend mode="normal" in="SourceGraphic" in2="effect1_dropShadow" result="shape"/>
</filter>
<filter id="filter1_i" x="150" y="78" width="187" height="302.73" filterUnits="userSpaceOnUse" color-interpolation-filters="sRGB">
<feFlood flood-opacity="0" result="BackgroundImageFix"/>
<feBlend mode="normal" in="SourceGraphic" in2="BackgroundImageFix" result="shape"/>
<feColorMatrix in="SourceAlpha" type="matrix" values="0 0 0 0 0 0 0 0 0 0 0 0 0 0 0 0 0 0 127 0" result="hardAlpha"/>
<feOffset/>
<feGaussianBlur stdDeviation="9.5"/>
<feComposite in2="hardAlpha" operator="arithmetic" k2="-1" k3="1"/>
<feColorMatrix type="matrix" values="0 0 0 0 0 0 0 0 0 0 0 0 0 0 0 0 0 0 0.42 0"/>
<feBlend mode="normal" in2="shape" result="effect1_innerShadow"/>
</filter>
<clipPath id="clip0">
<rect width="458" height="458" fill="white"/>
</clipPath>
</defs>
</svg>
